<svg width="29" height="34" viewBox="0 0 29 34" fill="none" xmlns="http://www.w3.org/2000/svg">
<path d="M3.33333 33.6667C2.41667 33.6667 1.63167 33.3406 0.978333 32.6884C0.326111 32.035 0 31.25 0 30.3334V7.00004H3.33333V30.3334H21.6667V33.6667H3.33333ZM10 27C9.08333 27 8.29889 26.6739 7.64667 26.0217C6.99333 25.3684 6.66667 24.5834 6.66667 23.6667V3.66671C6.66667 2.75004 6.99333 1.96504 7.64667 1.31171C8.29889 0.659485 9.08333 0.333374 10 0.333374H25C25.9167 0.333374 26.7017 0.659485 27.355 1.31171C28.0072 1.96504 28.3333 2.75004 28.3333 3.66671V23.6667C28.3333 24.5834 28.0072 25.3684 27.355 26.0217C26.7017 26.6739 25.9167 27 25 27H10ZM10 23.6667H25V3.66671H10V23.6667Z" fill="black"/>
</svg>
