<svg width="512" height="512" viewBox="0 0 512 512" fill="none" xmlns="http://www.w3.org/2000/svg">
<rect width="512" height="512" rx="37.1014" fill="#FF2F00"/>
<path d="M63.9607 356.561C63.7282 360.514 62.1007 363.885 59.0783 366.675C56.0558 369.465 52.6847 370.86 48.9648 370.86C45.0123 370.86 41.5249 369.465 38.5025 366.675C35.7126 363.652 34.3176 360.165 34.3176 356.213V112.093C34.3176 108.141 35.7126 104.769 38.5025 101.98C41.5249 98.9571 45.0123 97.4459 48.9648 97.4459H149.751C161.608 97.4459 172.419 99.6546 182.184 104.072C192.182 108.489 201.016 114.418 208.689 121.858C215.896 129.298 221.708 138.016 226.126 148.014C230.543 157.778 232.752 168.473 232.752 180.098C232.752 191.955 230.543 202.882 226.126 212.88C221.708 222.877 215.896 231.479 208.689 238.686C201.946 245.429 194.158 250.892 185.323 255.077C176.488 259.262 167.188 261.703 157.424 262.401C156.959 262.866 156.261 263.098 155.331 263.098C154.634 263.098 154.052 263.098 153.587 263.098H129.175C145.915 276.816 162.19 290.417 177.999 303.901C194.041 317.386 210.432 330.871 227.172 344.355C230.194 346.913 231.938 350.284 232.403 354.469C233.101 358.654 232.171 362.374 229.613 365.629V365.28C226.823 369 223.452 371.092 219.5 371.557C215.78 372.022 212.06 370.86 208.34 368.07L77.5616 260.657H77.9104C73.9579 257.867 71.9817 253.799 71.9817 248.451C71.9817 244.034 73.2605 240.546 75.8179 237.989C78.6078 235.199 82.2115 233.804 86.6289 233.804H149.751C157.191 233.804 164.166 232.525 170.676 229.968C177.186 227.178 182.765 223.342 187.415 218.459C192.298 213.577 196.134 207.881 198.924 201.371C201.714 194.861 203.109 187.886 203.109 180.447C203.109 173.007 201.714 166.148 198.924 159.871C196.134 153.593 192.298 148.014 187.415 143.131C177.418 132.669 164.863 127.438 149.751 127.438H63.9607V356.561Z" fill="white"/>
<path d="M456.177 347.991H468.313C470.209 347.991 472.028 347.246 473.379 345.916C474.758 344.559 475.535 342.704 475.535 340.769V110.536C475.535 108.64 474.839 106.81 473.58 105.394C472.111 103.742 470.006 102.797 467.796 102.797H375.875C373.709 102.797 371.63 103.648 370.086 105.168C368.509 106.719 367.621 108.839 367.621 111.05V118.973C367.621 121.185 368.509 123.304 370.086 124.856C371.63 126.375 373.709 127.226 375.875 127.226H448.035V299.282L295.725 108.93C293.328 105.935 289.382 104.649 285.681 105.659C281.496 106.801 278.593 110.602 278.593 114.94V341.458C278.593 345.662 280.158 349.714 282.985 352.826L363.125 441.052C365.906 444.113 369.849 445.858 373.984 445.858C377.645 445.858 381.173 444.489 383.877 442.021L429.631 400.234C432.096 397.982 433.501 394.797 433.501 391.459C433.501 388.29 432.236 385.253 429.987 383.022L429.475 382.514C426.925 379.984 423.473 378.565 419.881 378.565C416.444 378.565 413.128 379.863 410.606 382.199L378.009 412.398C376.644 413.663 374.514 413.587 373.242 412.229L308.832 343.422C307.072 341.543 306.093 339.064 306.093 336.49V162.746L450.877 345.428C452.16 347.047 454.112 347.991 456.177 347.991Z" fill="white"/>
</svg>
