<svg width="565" height="117" viewBox="0 0 565 117" fill="none" xmlns="http://www.w3.org/2000/svg">
<path d="M9.40003 76.8C9.33336 77.9333 8.86669 78.9 8.00003 79.7C7.13336 80.5 6.16669 80.9 5.10003 80.9C3.96669 80.9 2.96669 80.5 2.10002 79.7C1.30002 78.8333 0.900024 77.8333 0.900024 76.7V6.7C0.900024 5.56666 1.30002 4.6 2.10002 3.8C2.96669 2.93333 3.96669 2.5 5.10003 2.5H34C37.4 2.5 40.5 3.13333 43.3 4.4C46.1667 5.66666 48.7 7.36666 50.9 9.5C52.9667 11.6333 54.6334 14.1333 55.9 17C57.1667 19.8 57.8 22.8667 57.8 26.2C57.8 29.6 57.1667 32.7333 55.9 35.6C54.6334 38.4667 52.9667 40.9333 50.9 43C48.9667 44.9333 46.7334 46.5 44.2 47.7C41.6667 48.9 39 49.6 36.2 49.8C36.0667 49.9333 35.8667 50 35.6 50C35.4 50 35.2334 50 35.1 50H28.1C32.9 53.9333 37.5667 57.8333 42.1 61.7C46.7 65.5667 51.4 69.4333 56.2 73.3C57.0667 74.0333 57.5667 75 57.7 76.2C57.9 77.4 57.6334 78.4667 56.9 79.4V79.3C56.1 80.3667 55.1334 80.9667 54 81.1C52.9334 81.2333 51.8667 80.9 50.8 80.1L13.3 49.3H13.4C12.2667 48.5 11.7 47.3333 11.7 45.8C11.7 44.5333 12.0667 43.5333 12.8 42.8C13.6 42 14.6334 41.6 15.9 41.6H34C36.1334 41.6 38.1334 41.2333 40 40.5C41.8667 39.7 43.4667 38.6 44.8 37.2C46.2 35.8 47.3 34.1667 48.1 32.3C48.9 30.4333 49.3 28.4333 49.3 26.3C49.3 24.1667 48.9 22.2 48.1 20.4C47.3 18.6 46.2 17 44.8 15.6C41.9334 12.6 38.3334 11.1 34 11.1H9.40003V76.8Z" fill="white"/>
<path d="M76.4742 72.8C76.4742 71.6667 76.8742 70.7 77.6742 69.9C78.4742 69.0333 79.5076 68.6 80.7742 68.6C81.9076 68.6 82.8742 69.0333 83.6742 69.9C84.5409 70.7 84.9742 71.6667 84.9742 72.8V76.8C84.9742 78.0667 84.5409 79.1 83.6742 79.9C82.8742 80.6333 81.9076 81 80.7742 81C79.5076 81 78.4742 80.6333 77.6742 79.9C76.8742 79.1 76.4742 78.0667 76.4742 76.8V72.8Z" fill="white"/>
<path d="M106.955 81C105.822 81 104.822 80.6 103.955 79.8C103.155 78.9333 102.755 77.9333 102.755 76.8V6.8C102.755 5.66666 103.155 4.69999 103.955 3.9C104.822 3.03333 105.822 2.6 106.955 2.6H152.255C153.389 2.6 154.322 3.03333 155.055 3.9C155.855 4.69999 156.255 5.66666 156.255 6.8C156.255 7.93333 155.855 8.93333 155.055 9.8C154.322 10.6667 153.389 11.1 152.255 11.1H111.155V72.5H151.955C153.222 72.5 154.222 72.9 154.955 73.7C155.755 74.5 156.156 75.5333 156.156 76.8C156.156 77.9333 155.755 78.9333 154.955 79.8C154.222 80.6 153.222 81 151.955 81H106.955ZM117.455 46C116.322 46 115.322 45.6 114.455 44.8C113.655 43.9333 113.255 42.9333 113.255 41.8C113.255 40.6667 113.655 39.7 114.455 38.9C115.322 38.0333 116.322 37.6 117.455 37.6H135.955C137.089 37.6 138.055 38.0333 138.855 38.9C139.722 39.7 140.156 40.6667 140.156 41.8C140.156 42.9333 139.722 43.9333 138.855 44.8C138.055 45.6 137.089 46 135.955 46H117.455Z" fill="white"/>
<path d="M174.814 72.8C174.814 71.6667 175.214 70.7 176.014 69.9C176.814 69.0333 177.847 68.6 179.114 68.6C180.247 68.6 181.214 69.0333 182.014 69.9C182.881 70.7 183.314 71.6667 183.314 72.8V76.8C183.314 78.0667 182.881 79.1 182.014 79.9C181.214 80.6333 180.247 81 179.114 81C177.847 81 176.814 80.6333 176.014 79.9C175.214 79.1 174.814 78.0667 174.814 76.8V72.8Z" fill="white"/>
<path d="M267.392 72.8C267.392 71.6667 267.792 70.7 268.592 69.9C269.392 69.0333 270.426 68.6 271.692 68.6C272.826 68.6 273.792 69.0333 274.592 69.9C275.459 70.7 275.892 71.6667 275.892 72.8V76.8C275.892 78.0667 275.459 79.1 274.592 79.9C273.792 80.6333 272.826 81 271.692 81C270.426 81 269.392 80.6333 268.592 79.9C267.792 79.1 267.392 78.0667 267.392 76.8V72.8Z" fill="white"/>
<path d="M314.873 5.3C315.273 4.36666 315.84 3.63333 316.573 3.1C317.373 2.56666 318.14 2.29999 318.873 2.29999C319.607 2.29999 320.307 2.56666 320.973 3.1C321.707 3.63333 322.273 4.36666 322.673 5.3L350.873 75C351.273 76.0667 351.207 77.1667 350.673 78.3C350.207 79.3667 349.473 80.1 348.473 80.5H348.573C347.44 81.0333 346.34 81.0667 345.273 80.6C344.207 80.1333 343.473 79.3333 343.073 78.2V78.3L318.873 18.2L294.473 78.3V78.2C294.073 79.3333 293.34 80.1333 292.273 80.6C291.207 81.0667 290.107 81.0333 288.973 80.5H289.073C288.007 80.1 287.24 79.4 286.773 78.4C286.307 77.3333 286.273 76.2333 286.673 75.1L314.873 5.3Z" fill="white"/>
<path d="M362.607 72.8C362.607 71.6667 363.007 70.7 363.807 69.9C364.607 69.0333 365.64 68.6 366.907 68.6C368.04 68.6 369.007 69.0333 369.807 69.9C370.674 70.7 371.107 71.6667 371.107 72.8V76.8C371.107 78.0667 370.674 79.1 369.807 79.9C369.007 80.6333 368.04 81 366.907 81C365.64 81 364.607 80.6333 363.807 79.9C363.007 79.1 362.607 78.0667 362.607 76.8V72.8Z" fill="white"/>
<path d="M430.888 49.8C431.622 50.8 431.922 51.8667 431.788 53C431.655 54.0667 431.155 54.9667 430.288 55.7C429.222 56.4333 428.088 56.7333 426.888 56.6C425.755 56.4667 424.822 55.9667 424.088 55.1L397.588 19.4V76.8C397.588 77.9333 397.155 78.9333 396.288 79.8C395.422 80.6 394.422 81 393.288 81C392.155 81 391.155 80.6 390.288 79.8C389.488 78.9333 389.088 77.9333 389.088 76.8V6.8C389.088 5.66666 389.488 4.69999 390.288 3.9C391.155 3.03333 392.155 2.6 393.288 2.6C394.022 2.6 394.688 2.8 395.288 3.19999C395.888 3.53333 396.388 3.96666 396.788 4.5L430.888 49.8ZM465.888 76.8C465.888 77.9333 465.488 78.9333 464.688 79.8C463.955 80.6 463.022 81 461.888 81C460.622 81 459.588 80.6 458.788 79.8C458.055 78.9333 457.688 77.9333 457.688 76.8V19.6L438.688 44.9C437.955 45.8333 437.022 46.3667 435.888 46.5C434.755 46.6333 433.655 46.3333 432.588 45.6C431.722 44.8667 431.188 43.9333 430.988 42.8C430.855 41.6667 431.155 40.6 431.888 39.6L458.188 4.5C459.055 3.23333 460.288 2.6 461.888 2.6C463.022 2.6 463.955 3.03333 464.688 3.9C465.488 4.69999 465.888 5.66666 465.888 6.8V76.8Z" fill="white"/>
<path d="M485.166 72.8C485.166 71.6667 485.566 70.7 486.366 69.9C487.166 69.0333 488.199 68.6 489.466 68.6C490.599 68.6 491.566 69.0333 492.366 69.9C493.232 70.7 493.666 71.6667 493.666 72.8V76.8C493.666 78.0667 493.232 79.1 492.366 79.9C491.566 80.6333 490.599 81 489.466 81C488.199 81 487.166 80.6333 486.366 79.9C485.566 79.1 485.166 78.0667 485.166 76.8V72.8Z" fill="white"/>
<path d="M515.647 81C514.514 81 513.514 80.6 512.647 79.8C511.847 78.9333 511.447 77.9333 511.447 76.8V6.8C511.447 5.66666 511.847 4.69999 512.647 3.9C513.514 3.03333 514.514 2.6 515.647 2.6H560.947C562.08 2.6 563.014 3.03333 563.747 3.9C564.547 4.69999 564.947 5.66666 564.947 6.8C564.947 7.93333 564.547 8.93333 563.747 9.8C563.014 10.6667 562.08 11.1 560.947 11.1H519.847V72.5H560.647C561.914 72.5 562.914 72.9 563.647 73.7C564.447 74.5 564.847 75.5333 564.847 76.8C564.847 77.9333 564.447 78.9333 563.647 79.8C562.914 80.6 561.914 81 560.647 81H515.647ZM526.147 46C525.014 46 524.014 45.6 523.147 44.8C522.347 43.9333 521.947 42.9333 521.947 41.8C521.947 40.6667 522.347 39.7 523.147 38.9C524.014 38.0333 525.014 37.6 526.147 37.6H544.647C545.78 37.6 546.747 38.0333 547.547 38.9C548.414 39.7 548.847 40.6667 548.847 41.8C548.847 42.9333 548.414 43.9333 547.547 44.8C546.747 45.6 545.78 46 544.647 46H526.147Z" fill="white"/>
<path d="M252.452 83.4147H256.569C257.211 83.4147 257.827 83.1608 258.282 82.7085C258.742 82.2521 259 81.6311 259 80.9834V3.09037C259 2.45598 258.769 1.84336 258.349 1.36734C257.854 0.805674 257.142 0.483856 256.394 0.483856H225.614C224.881 0.483856 224.177 0.774006 223.656 1.291C223.131 1.81263 222.836 2.52225 222.836 3.26248V5.96791C222.836 6.70813 223.131 7.41776 223.656 7.93938C224.177 8.45638 224.881 8.74653 225.614 8.74653H249.784V66.9401L198.742 2.55867C197.94 1.54657 196.61 1.11202 195.365 1.45489C193.968 1.83949 193 3.10981 193 4.55863V81.3722C193 82.6871 193.487 83.9555 194.366 84.9329L221.337 114.899C222.263 115.928 223.583 116.516 224.967 116.516C226.194 116.516 227.376 116.055 228.278 115.223L243.61 101.091C244.441 100.325 244.913 99.2465 244.913 98.1165C244.913 97.0445 244.488 96.0163 243.73 95.2579L243.561 95.0878C242.709 94.235 241.553 93.7557 240.348 93.7557C239.196 93.7557 238.088 94.1933 237.246 94.9797L226.27 105.242C225.84 105.645 225.164 105.621 224.763 105.189L203.068 81.7989C202.52 81.2083 202.216 80.4326 202.216 79.6271V20.7604L250.778 82.6006C251.181 83.1146 251.799 83.4147 252.452 83.4147Z" fill="white"/>
</svg>
