<svg width="1001" height="171" viewBox="0 0 1001 171" fill="none" xmlns="http://www.w3.org/2000/svg">
<g clip-path="url(#clip0_10_12)">
<path d="M402.454 171C399.111 171 395.763 169.524 393.595 166.979C392.737 165.971 391.886 164.987 391 164C383.18 155.286 376.031 147.204 368.099 138.59C364.417 134.591 360.559 130.731 357.174 126.494C355.883 124.877 355.096 122.383 355.089 120.286C354.966 83.1253 354.958 45.9637 355.119 8.80298C355.128 6.87976 355.689 4.47037 357.845 3.35591C360 2.24146 363.415 3.8514 364.73 5.46842C375.797 19.0775 386.434 33.0357 397.349 46.7704C408.39 60.6644 419.607 74.419 430.734 88.2451C432.822 90.8396 434.848 93.4837 437.57 96.9558C437.57 69.1092 437.57 42.3082 437.57 15C427.614 15 417.5 14.7835 407.5 14.8917C407.035 14.8968 406.507 14.9001 405.947 14.9021C402.111 14.9158 399 11.7819 399 7.94586V7.94586C399 4.10977 402.108 1 405.944 1C418.652 1 432.865 1.00001 445.912 1.00001C449.778 1.00001 452.908 4.13417 452.902 8.00016C452.898 10.7843 452.896 13.489 452.911 16.3165C453.084 49.6437 453.054 82.9724 452.891 116.3C452.878 118.81 451.5 123.328 448.5 124C445.5 124.672 442.201 125.579 438.974 121.522C432.185 112.988 425.253 104.566 418.515 95.9916C409.185 84.1201 399.978 72.152 390.72 60.2237C384.947 52.7845 379.18 45.3402 373.404 37.9036C372.321 36.5101 371.206 35.1421 370.106 33.7624C369.737 33.9952 369.369 34.2281 369 34.461C369 38.8829 369 43.3048 369 47.7267C369 70.0565 368.942 92.3867 369.089 114.716C369.104 116.987 369.703 119.841 371.137 121.422C381.452 132.797 392.054 143.913 403.043 155.622C405.473 153.483 407.766 151.47 410.053 149.451C413.991 145.973 417.724 142.219 421.923 139.091C425.699 136.278 428.878 138.726 431.068 141.763C433.16 144.663 432.278 147.524 429.61 149.964C423.014 155.994 416.683 161.576 410.372 167.682C408.195 169.788 405.483 171 402.454 171V171Z" fill="white"/>
<path d="M1.0052 17.0715C0.998908 12.8399 2.55594 8.63106 5.93234 6.08032C6.45514 5.68537 6.98588 5.3087 7.52856 4.95008C8.52291 4.293 9.95257 4.04489 11.1866 4.03883C24.013 3.97583 36.8626 3.51754 49.6609 4.12102C66.0123 4.89204 79.0284 11.4048 85.225 29.6506C91.6013 48.4255 78.5961 71.1437 58.6945 73.983C54.3464 74.6033 49.9618 74.9684 45.0961 75.506C50.1347 79.9047 54.9849 84.3556 60.066 88.5252C68.233 95.2272 76.582 101.707 84.7905 108.359C87.4397 110.506 87.6361 115.262 85.4123 118.095C83.1907 120.924 78.5624 121.468 75.6056 119.033C63.7679 109.286 52.0255 99.4222 40.1679 89.699C34.0161 84.6545 27.6742 79.8426 21.4645 74.8679C18.7142 72.6646 17.116 69.8607 18.337 66.2559C19.4854 62.865 21.9217 61.7823 25.5795 61.9091C33.8985 62.1974 42.2434 62.2454 50.5613 61.9418C62.7014 61.4987 69.91 55.5233 72.7933 45.2833C75.5142 35.6203 70.4408 25.0407 61.14 20.1042C58.9422 18.9378 56.2721 18.1324 53.8043 18.0928C41.353 17.8928 28.8968 18.0009 16 18.0009C16 19.955 16 21.5699 16 23.1848C16 52.503 16.0146 81.8213 15.9895 111.139C15.9895 116 13 119.5 8.5 119.5C4 119.5 1.5 115.5 1.5 111.139C1.5 107.041 1.0583 52.7709 1.0052 17.0715Z" fill="white"/>
<path d="M1001 10.7461C1001 13.9435 998.444 16.5555 995.247 16.6136C975.897 16.9652 957.199 17 937.367 17C937.367 47.4594 937.367 76.8628 937.367 106.785C938.447 106.845 939.863 106.989 941.28 106.99C958.944 107.005 973.609 106.94 991.272 107.072C992.115 107.079 993.287 107.081 994.558 107.08C998.116 107.079 1001 109.649 1001 113.206V113.206C1001 116.764 998.116 119.948 994.559 119.947C993.356 119.946 992.114 119.948 990.774 119.955C970.959 120.051 951.143 120.005 931.327 119.996C925.812 119.994 924.005 118.19 924.003 112.681C923.996 79.2106 923.996 45.7402 924.004 12.2699C924.005 6.7915 925.821 5.00537 931.376 5.00327C952.857 4.99519 974.339 4.96131 995.819 5.06966V5.06966C998.709 5.08424 1001 7.36051 1001 10.251C1001 10.4153 1001 10.5804 1001 10.7461Z" fill="white"/>
<path d="M626.363 119.878C621.052 120.873 618.653 118.263 616.958 114.01C609.728 95.859 602.342 77.7698 595.005 59.6609C591.158 50.1632 587.296 40.6714 582.989 30.0656C581.466 33.0498 580.062 35.3658 579.056 37.8434C569.655 60.9901 560.325 84.1655 550.966 107.329C550.007 109.703 548.897 112.021 548.022 114.425C546.132 119.615 543.198 121.418 538.824 119.927C535.787 118.892 533.911 114.216 535.369 110.228C537.287 104.979 539.637 99.8896 541.714 94.6967C550.516 72.6931 559.259 50.6659 568.084 28.6716C570.648 22.2812 573.038 15.7714 576.267 9.72187C577.582 7.25901 580.773 4.75957 583.392 4.41548C584.993 4.20505 587.899 7.73658 588.905 10.1381C599.861 36.2855 610.554 62.5428 621.325 88.7676C624.187 95.7351 627.14 102.666 629.917 109.667C631.55 113.785 630.019 117.094 626.363 119.878Z" fill="white"/>
<path d="M733.28 15.7804C740.415 25.2398 747.249 34.4735 754.168 43.6433C761.582 53.4697 769.102 63.2163 776.52 73.0401C778.844 76.1174 778.556 81.6142 776.145 83.3618C772.594 85.9365 768.561 85.0479 765.593 81.0776C753.778 65.2701 741.955 49.4681 730.112 33.6817C729.858 33.3425 729.322 33.2139 728 32.4716C728 34.7231 728 36.4094 728 38.0957C728 62.8991 728.003 87.7024 727.997 112.506C727.996 118.045 726.204 120.047 721.345 120C716.907 119.957 715.004 117.789 715.003 112.696C714.997 79.2361 715.054 45.7763 714.918 12.3173C714.904 8.88803 715.936 6.19095 718.888 5.20128C722.361 4.03727 725.679 5.10058 727.914 8.468C729.519 10.8847 731.309 13.1781 733.28 15.7804Z" fill="white"/>
<path d="M776.65 65.176C774.648 60.1181 778.787 57.6938 780.897 54.7903C792.507 38.8077 804.325 22.9684 816.466 7.38726C817.824 5.64433 821.783 5.06899 824.321 5.43723C825.772 5.64778 827.833 8.85194 827.845 10.7191C828.056 45.2118 827.988 79.7061 828.013 114.2C828.017 119.093 825.125 120.062 820.971 120.054C816.51 120.045 815.96 117.451 815.968 113.869C816.028 88.3735 816 62.8779 816 37.3823C816 35.762 816 34.1417 816 30.8591C811.071 37.3725 807.052 42.721 802.992 48.0381C798.067 54.4869 793.33 61.097 788.09 67.28C784.287 71.7675 780.291 70.8874 776.65 65.176Z" fill="white"/>
<ellipse cx="498.5" cy="111" rx="6.5" ry="9" fill="white"/>
<ellipse cx="667.5" cy="111" rx="6.5" ry="9" fill="white"/>
<ellipse cx="877.5" cy="110" rx="6.5" ry="9" fill="white"/>
<path d="M256.377 119.994C233.439 120 210.948 120.003 188.456 119.997C183.15 119.996 181.024 118.005 181.018 112.685C180.982 79.1972 180.981 45.7096 181.02 12.222C181.026 6.94638 183.168 5.0035 188.549 5.00218C210.208 4.99686 231.867 5.11312 253.524 4.90773C258.038 4.86492 260.406 6.65714 260.932 10.7928C261.394 14.4333 257.483 17.9869 253.382 17.991C233.755 18.0109 214.127 18 194.251 18C194.251 47.6888 194.251 77.0863 194.251 107C200.203 107 206.143 107 212.082 107C225.577 107 239.075 107.17 252.565 106.899C256.748 106.814 259.301 108.58 260.429 112.049C261.51 115.379 260.216 118.334 256.377 119.994Z" fill="white"/>
<path d="M197.147 59.5948C199.195 56.5795 201.716 55.8285 204.97 55.9226C213.093 56.1574 221.227 55.9721 229.357 56.0101C234.498 56.0342 237.108 58.3624 236.999 62.6872C236.895 66.8316 234.424 68.959 229.48 68.9879C221.683 69.0334 213.885 69.0001 206.087 69C198.016 68.9998 196.973 67.9636 197.147 59.5948Z" fill="white"/>
<ellipse cx="307.5" cy="111" rx="6.5" ry="9" fill="white"/>
<path d="M939.5 62C939.5 57.5 942 56.0099 946.653 56.1636C955.276 55.7567 963.929 55.9797 972.57 56.0099C976.075 56.0222 979.991 58 979.991 62.3706C979.991 66.7412 976.162 68.9816 972.331 68.9925C963.855 69.0166 955.38 69.0247 946.904 68.9919C940.613 68.9675 939.5 66.5 939.5 62Z" fill="white"/>
<ellipse cx="134.5" cy="111" rx="6.5" ry="9" fill="white"/>
</g>
<defs>
<clipPath id="clip0_10_12">
<rect width="1001" height="171" fill="white"/>
</clipPath>
</defs>
</svg>
